<?xml version="1.0" standalone="no"?>
<!DOCTYPE svg PUBLIC "-//W3C//DTD SVG 20010904//EN"
 "http://www.w3.org/TR/2001/REC-SVG-20010904/DTD/svg10.dtd">
<svg version="1.0" xmlns="http://www.w3.org/2000/svg"
 width="776.000000pt" height="776.000000pt" viewBox="0 0 776.000000 776.000000"
 preserveAspectRatio="xMidYMid meet">
<metadata>
Created by potrace 1.14, written by Peter Selinger 2001-2017
</metadata>
<g transform="translate(0.000000,776.000000) scale(0.100000,-0.100000)"
fill="#000000" stroke="none">
<path d="M2399 6596 c-41 -28 -69 -79 -69 -126 0 -54 32 -100 112 -164 l28
-21 -58 -34 c-134 -79 -303 -226 -385 -334 -20 -26 -43 -55 -52 -63 -8 -9 -15
-22 -15 -30 0 -8 -4 -14 -8 -14 -7 0 -105 -173 -107 -190 -1 -3 -9 -23 -18
-44 -10 -22 -20 -51 -24 -65 -3 -14 -9 -30 -13 -36 -4 -5 -8 -17 -8 -25 0 -8
-7 -42 -16 -75 -17 -69 -25 -134 -35 -272 -1 -6 -14 -14 -30 -18 -16 -3 -46
-24 -67 -46 -74 -76 -117 -88 -337 -94 -78 -3 -134 -9 -143 -16 -18 -15 -18
-70 0 -113 28 -68 131 -152 222 -180 78 -24 118 -25 179 -4 31 10 61 18 67 16
5 -2 -39 -51 -97 -108 -96 -95 -137 -146 -134 -167 2 -16 24 -35 58 -52 44
-22 152 -25 236 -6 57 12 71 16 113 32 9 3 20 7 23 7 3 1 33 17 67 38 47 27
64 33 70 23 14 -24 67 -88 89 -108 26 -23 26 -23 -37 -157 -23 -49 -52 -102
-60 -110 -3 -3 -25 -32 -49 -65 -70 -93 -166 -181 -291 -265 -141 -94 -273
-211 -342 -302 -13 -16 -32 -42 -44 -56 -74 -96 -187 -341 -208 -453 -2 -13
-9 -53 -16 -89 -7 -36 -13 -99 -14 -140 -1 -42 -5 -81 -9 -87 -3 -5 -4 -13 -1
-16 3 -3 7 -36 9 -74 5 -86 10 -115 41 -238 27 -107 79 -237 119 -297 14 -21
25 -40 25 -44 0 -17 156 -213 205 -257 11 -10 34 -31 50 -46 56 -50 140 -113
162 -122 13 -5 23 -12 23 -16 0 -5 20 -17 45 -28 25 -11 45 -23 45 -27 0 -5 9
-8 20 -8 11 0 20 -4 20 -10 0 -5 6 -10 13 -10 7 0 31 -8 53 -19 75 -36 222
-80 314 -96 19 -3 42 -8 50 -10 8 -2 35 -7 60 -10 25 -3 52 -8 61 -11 10 -3
31 -7 48 -9 17 -3 46 -7 64 -10 17 -3 50 -8 72 -10 22 -2 60 -7 85 -10 63 -9
93 -12 190 -20 47 -4 105 -9 130 -11 142 -12 665 -24 684 -15 4 2 54 5 110 7
117 3 243 11 301 18 22 3 72 8 110 11 39 3 81 7 95 10 14 3 45 8 70 11 37 4
147 22 247 39 28 4 170 33 198 40 21 5 107 26 185 45 45 11 132 36 160 47 8 3
20 7 27 9 29 6 228 77 280 100 32 14 78 35 103 46 135 59 392 204 446 253 6 5
22 17 34 25 97 64 267 228 359 346 34 44 65 84 69 89 4 6 17 26 28 45 10 19
22 37 26 40 12 10 116 233 136 295 26 76 51 171 57 210 3 17 7 41 10 55 15 76
26 209 26 315 0 98 -9 251 -16 275 -2 8 -7 38 -11 65 -3 28 -8 53 -10 56 -2 3
-5 19 -8 35 -24 129 -143 413 -323 769 -142 280 -166 322 -198 352 -35 33
-116 63 -170 63 -54 0 -124 -30 -168 -74 -62 -59 -80 -86 -175 -257 -54 -97
-66 -113 -147 -195 -49 -49 -84 -72 -171 -114 -249 -120 -391 -174 -484 -185
-26 -3 -180 -35 -295 -62 -60 -14 -119 -27 -130 -29 -11 -2 -72 -15 -135 -28
-133 -28 -255 -29 -306 -2 -93 48 -129 151 -86 243 24 52 25 54 136 162 249
242 389 504 432 806 10 69 11 316 1 322 -4 2 -5 9 -2 14 4 5 3 14 -1 20 -4 7
-8 26 -10 43 -7 77 -88 284 -149 381 -14 22 -28 46 -32 54 -3 8 -14 22 -22 31
-9 9 -31 35 -49 58 -34 42 -116 123 -167 164 -134 109 -376 221 -525 243 -25
4 -47 8 -50 10 -16 10 -138 18 -305 20 -282 4 -366 24 -463 110 -50 44 -72 54
-122 55 -32 0 -56 -7 -81 -24z"/>
</g>
</svg>
